<svg viewBox="0 0 24 24" fill="white" xmlns="http://www.w3.org/2000/svg">
    <path d="M12,2C7.04,2,3,6.04,3,11c0,3.86,2.45,7.15,5.88,8.39c0.12,0.05,0.21,0.14,0.24,0.27l0.87,3.73 c0.07,0.29,0.32,0.5,0.62,0.5h2.78c0.3,0,0.55-0.21,0.62-0.5l0.87-3.73c0.03-0.13,0.12-0.22,0.24-0.27C18.55,18.15,21,14.86,21,11 C21,6.04,16.96,2,12,2z M12,17c-3.31,0-6-2.69-6-6s2.69-6,6-6s6,2.69,6,6S15.31,17,12,17z"/>
    <circle cx="12" cy="11" r="2"/>
    <circle cx="9" cy="8" r="1"/>
    <circle cx="15" cy="8" r="1"/>
    <circle cx="15" cy="14" r="1"/>
    <circle cx="9" cy="14" r="1"/>
</svg> 